<?xml version="1.0" encoding="UTF-8"?>
<!-- Generator: Adobe Illustrator 23.0.3, SVG Export Plug-In . SVG Version: 6.00 Build 0)  -->
<svg version="1.1" id="Layer_1" xmlns="http://www.w3.org/2000/svg" xmlns:xlink="http://www.w3.org/1999/xlink" x="0px" y="0px" viewBox="0 0 177.5 146.7" style="enable-background:new 0 0 177.5 146.7;" xml:space="preserve">
<style type="text/css">
	.st0{fill:#D60B51;}
	.st1{fill:#B70745;}
	.st2{fill:#940938;}
	.st3{fill:#A6093E;}
	.st4{opacity:0.7;}
	.st5{fill:url(#SVGID_1_);}
	.st6{fill:url(#SVGID_2_);}
	.st7{fill:url(#SVGID_3_);}
	.st8{fill:url(#SVGID_4_);}
	.st9{fill:url(#SVGID_5_);}
	.st10{fill:url(#SVGID_6_);}
	.st11{fill:url(#SVGID_7_);}
	.st12{fill:url(#SVGID_8_);}
	.st13{fill:url(#SVGID_9_);}
	.st14{fill:url(#SVGID_10_);}
	.st15{fill:url(#SVGID_11_);}
	.st16{fill:url(#SVGID_12_);}
	.st17{fill:url(#SVGID_13_);}
	.st18{fill:url(#SVGID_14_);}
	.st19{fill:url(#SVGID_15_);}
	.st20{fill:url(#SVGID_16_);}
	.st21{fill:url(#SVGID_17_);}
	.st22{fill:url(#SVGID_18_);}
	.st23{fill:url(#SVGID_19_);}
	.st24{fill:url(#SVGID_20_);}
	.st25{fill:url(#SVGID_21_);}
	.st26{fill:url(#SVGID_22_);}
	.st27{fill:url(#SVGID_23_);}
	.st28{fill:url(#SVGID_24_);}
	.st29{fill:url(#SVGID_25_);}
</style>
<title>Artboard 1</title>
<g>
	<g id="Logotype">
		<path class="st0" d="M61,28c0.6,0.2,1.1,0.4,1.7,0.6c0.4,0.1,0.8,0.2,1.3,0.2c0.1,0,0.2,0,0.3,0c0.1,0,0.3-0.2,0.6-0.5    c0.3-0.4,0.5-0.8,0.7-1.2c0.3-0.5,0.5-1,0.8-1.6c0.3-0.6,0.5-1.1,0.7-1.6c0.2-0.5,0.4-1,0.5-1.3c0.1-0.4,0.2-0.6,0.3-0.7    c0-0.1-0.2-0.4-0.6-0.6c-0.5-0.3-1-0.6-1.5-0.8c-0.6-0.3-1.2-0.5-1.8-0.7c-0.4-0.1-0.8-0.2-1.2-0.2c-0.1,0-0.2,0-0.3,0    c-0.2,0-0.5,0.3-0.9,0.9c-0.4,0.7-0.8,1.4-1.1,2.1c-0.4,0.8-0.7,1.6-1,2.4c-0.2,0.6-0.4,1.3-0.4,2c0,0.1,0.2,0.3,0.6,0.5    C60,27.6,60.5,27.8,61,28z"/>
		<path class="st0" d="M65.9,44c-0.5,0.5-1.2,1.2-1.8,1.8c-0.7,0.7-1.4,1.4-2.1,2s-1.4,1.3-2.1,1.9s-1.3,1.1-1.8,1.4    c-0.3,0.3-0.8,0.5-1.2,0.6c-0.1,0-0.2-0.1-0.2-0.2c0-0.4,0.1-0.9,0.2-1.3c0.2-0.6,0.4-1.3,0.6-2.1c0.3-0.8,0.5-1.6,0.9-2.5    c0.3-0.9,0.6-1.8,1-2.7c0.3-0.9,0.6-1.8,0.9-2.6c0.3-0.8,0.5-1.6,0.7-2.2c0-0.2,0.1-0.3,0.1-0.4c0-0.1,0-0.2,0-0.3    c0-0.3-0.3-0.7-0.7-1.2c-0.5-0.4-1.1-0.8-1.7-1.2c-0.6-0.3-1.2-0.6-1.8-0.9c-0.3-0.2-0.7-0.3-1.1-0.3c-0.1,0-0.3,0.4-0.6,1    c-0.3,0.7-0.6,1.6-1.1,2.7s-0.9,2.3-1.3,3.7c-0.5,1.4-1,2.8-1.4,4.3s-0.9,2.9-1.3,4.3c-0.4,1.4-0.7,2.6-0.9,3.7    c0,0.5,0.2,0.9,0.5,1.2c0.4,0.4,0.8,0.8,1.3,1.1c0.5,0.3,1,0.5,1.6,0.7c0.4,0.1,0.7,0.2,1.1,0.2c0.1,0,0.2,0,0.2,0    c0.7-0.1,1.4-0.4,2-0.8c0.9-0.6,1.8-1.2,2.6-1.8c0.9-0.7,1.9-1.6,2.8-2.5s1.9-1.8,2.8-2.7c0.3-0.3,0.6-0.7,1-1    c-0.1,0.7-0.1,1.4-0.1,2.1c0,0.7,0.3,1.3,0.7,1.8c0.5,0.6,1.1,1,1.7,1.4c0.6,0.4,1.3,0.7,2,0.9c0.4,0.1,0.9,0.2,1.3,0.3    c0.1,0,0.2,0,0.2,0c1.1-0.2,2.2-0.8,3.4-1.8c1.3-1.1,2.5-2.2,3.7-3.5c0.2,0.6,0.6,1.1,1.1,1.4c0.5,0.4,1.1,0.8,1.7,1.1    c0.5,0.3,1.1,0.5,1.7,0.7c0.3,0.1,0.7,0.2,1.1,0.2c0.1,0,0.2,0,0.3,0c0.8-0.2,1.5-0.5,2.2-0.9c0.8-0.5,1.6-1,2.3-1.7    c0.8-0.7,1.6-1.5,2.4-2.2c0.8-0.8,1.6-1.7,2.4-2.7c0.7,0.5,1.6,0.8,2.5,0.7c0.3,0,0.7,0,1-0.1c1.5-0.2,3-0.9,4.6-2    c0.8-0.6,1.6-1.2,2.3-1.9c-0.1,0.2-0.1,0.3-0.1,0.5c-0.4,1.4-0.7,2.6-0.9,3.7c0,0.5,0.2,0.9,0.5,1.2c0.4,0.4,0.8,0.8,1.3,1    c0.5,0.3,1,0.5,1.6,0.7c0.4,0.1,0.7,0.2,1.1,0.2c0.1,0,0.2,0,0.2,0c0.7-0.1,1.4-0.4,2-0.8c0.9-0.5,1.7-1.2,2.6-1.8    c0.9-0.7,1.9-1.6,2.8-2.5c1-0.9,1.9-1.8,2.8-2.7c0.9-0.9,1.7-1.7,2.5-2.6c0.7-0.7,1.2-1.3,1.7-1.9c0.1-0.1,0.1-0.4,0-0.5    c-0.2-0.2-0.4-0.4-0.6-0.6s-0.4-0.4-0.6-0.6c-0.1-0.1-0.3-0.1-0.4,0c-0.3,0.3-0.6,0.6-1.1,1c-0.5,0.5-1.1,1.1-1.8,1.8    c-0.7,0.7-1.4,1.3-2.1,2c-0.7,0.7-1.4,1.3-2.1,1.9s-1.3,1.1-1.8,1.4c-0.4,0.3-0.8,0.5-1.2,0.6c-0.1,0-0.2-0.1-0.2-0.2    c0-0.4,0.1-0.9,0.2-1.3c0.2-0.6,0.4-1.3,0.6-2.1c0.3-0.8,0.5-1.6,0.9-2.5c0.3-0.9,0.6-1.8,1-2.7c0.3-0.9,0.6-1.8,0.9-2.6    c0.3-0.8,0.5-1.6,0.7-2.2c0.1-0.2,0.1-0.3,0.1-0.4c0-0.1,0-0.2,0-0.3c0-0.4-0.3-0.7-0.8-1.2c-0.5-0.4-1.1-0.8-1.7-1.2    c-0.6-0.3-1.2-0.6-1.8-0.9c-0.3-0.2-0.7-0.3-1.1-0.3c-0.1,0-0.3,0.4-0.6,1s-0.7,1.6-1.1,2.7c-0.4,1.1-0.9,2.3-1.4,3.8    c-0.4,1.2-0.8,2.4-1.3,3.5c-1.5,1.6-2.9,2.9-4,3.9c-1.2,1-2.4,1.6-3.5,1.8c-0.2,0-0.5,0.1-0.7,0.1c-0.5,0-1.1-0.1-1.4-0.5    c0.7-1,1.4-2,2-3.1c0.6-1,1.2-2,1.6-2.9c0.4-0.8,0.8-1.7,1.1-2.5c0.2-0.6,0.4-1.3,0.4-1.9c-0.1-0.3-0.3-0.6-0.6-0.9    c-0.4-0.4-0.8-0.7-1.2-1c-0.5-0.4-1-0.7-1.6-0.9c-0.5-0.3-1.1-0.5-1.7-0.6c-0.5,0.7-1,1.4-1.3,2.2c-0.5,1-0.9,2.1-1.3,3.1    c-0.4,1.1-0.7,2.2-1,3.3c-0.2,0.9-0.4,1.9-0.4,2.8c0,0.8,0.1,1.7,0.3,2.5c-0.5,0.7-1,1.4-1.6,2.1c-0.5,0.6-1,1.3-1.6,1.8    c-0.5,0.5-1,0.9-1.5,1.3c-0.4,0.3-0.9,0.5-1.4,0.6c-0.1,0-0.2-0.1-0.3-0.2c-0.1-0.2-0.1-0.3-0.1-0.5c0-0.5,0.1-0.9,0.2-1.4    c0.1-0.6,0.3-1.4,0.5-2.2s0.4-1.8,0.7-2.7c0.3-1,0.6-2,0.9-3c0.3-1,0.6-2,1-2.9c0.3-1,0.7-1.8,1-2.6c-1-0.7-2.1-1.3-3.2-1.8    c-1.2-0.5-2.3-0.9-3.5-1.3c-0.4,1.2-0.8,2.4-1.3,3.6c-0.4,1.2-0.8,2.5-1.2,3.7c-0.4,1.3-0.7,2.5-1.1,3.8c-0.3,1.3-0.6,2.5-0.7,3.8    c-0.5,0.7-1,1.3-1.5,2c-0.5,0.6-1,1.2-1.5,1.7c-0.4,0.4-0.9,0.9-1.4,1.2c-0.4,0.3-0.8,0.5-1.3,0.6c-0.1,0-0.3-0.1-0.3-0.2    c-0.1-0.1-0.1-0.3-0.1-0.5c0-0.5,0.1-1,0.2-1.5c0.1-0.7,0.3-1.5,0.5-2.5c0.2-0.9,0.5-2,0.8-3.1c0.3-1.1,0.6-2.2,1-3.3    s0.7-2.1,1.1-3.2c0.4-1,0.7-1.9,1.1-2.7c-1-0.7-2.1-1.3-3.2-1.8c-1.2-0.5-2.3-0.9-3.5-1.3c-0.5,1.5-1,3-1.6,4.6    c-0.6,1.6-1.1,3.3-1.6,5C66.6,41.5,66.3,42.8,65.9,44z"/>
		<path class="st0" d="M112.9,19.6c0.5,0.3,0.9,0.5,1.4,0.7c0.6,0.2,1.1,0.4,1.7,0.6c0.4,0.1,0.9,0.2,1.4,0.2h0.2    c0.1,0,0.3-0.2,0.6-0.5c0.3-0.4,0.5-0.8,0.7-1.2c0.2-0.5,0.5-1,0.8-1.6c0.3-0.6,0.5-1.1,0.7-1.6c0.2-0.5,0.4-1,0.5-1.3    c0.1-0.4,0.2-0.6,0.3-0.7c0-0.1-0.2-0.4-0.6-0.7c-0.5-0.3-1-0.6-1.5-0.9c-0.6-0.3-1.2-0.5-1.8-0.7c-0.4-0.1-0.8-0.2-1.3-0.2    c-0.1,0-0.2,0-0.3,0c-0.2,0-0.5,0.3-0.9,0.9c-0.4,0.7-0.8,1.4-1.1,2.1c-0.4,0.8-0.7,1.6-1,2.4c-0.2,0.6-0.4,1.3-0.4,2    C112.3,19.2,112.5,19.4,112.9,19.6z"/>
		<path class="st0" d="M99,58.3l-14.3,3.4c-0.2,0-0.3,0.2-0.3,0.3l-1.5,5.7c-0.1,0.2,0,0.4,0.2,0.5l12.3,7.1    c0.2,0.1,0.5,0.1,0.6-0.1l7.8-11.2c0.1-0.2,0.1-0.4,0-0.6l-4.3-5C99.3,58.3,99.1,58.2,99,58.3z"/>
		<path class="st0" d="M177.5,66.9c-0.1-1-0.2-1.9-0.4-2.8c-0.6-2.9-2-5.6-4-7.8c-0.7-0.7-1.4-1.4-2.3-1.9c-1.7-1.2-3.6-1.9-5.7-2.2    c-1-0.1-2-0.1-3,0c-1,0.1-1.9,0.3-2.8,0.6c-1.8,0.6-3.4,1.4-5,2.4c-1.5,1-2.8,2.1-4.1,3.3c-0.6,0.6-1.2,1.2-1.8,1.9    c-0.3,0.3-0.6,0.7-0.8,1c-0.2,0.3-0.4,0.6-0.7,0.9c-0.1,0.1,0,0.2,0,0.3l1.2,1.1c0.1,0.1,0.3,0.1,0.4,0c0.2-0.2,0.5-0.4,0.7-0.6    l1-0.7c0.6-0.5,1.3-0.9,1.9-1.4c1.3-0.9,2.6-1.7,4-2.4c1.3-0.7,2.7-1.2,4.2-1.5c1.3-0.3,2.6-0.4,4-0.2c0.6,0.1,1.2,0.3,1.8,0.5    c0.6,0.3,1.1,0.6,1.7,1c0.5,0.4,1,0.8,1.5,1.3c0.5,0.5,0.9,1,1.2,1.6c0.7,1.1,1.2,2.4,1.5,3.7c0.3,1.4,0.4,2.8,0.3,4.3    c-0.1,1.5-0.3,3-0.7,4.5c-0.4,1.5-0.8,3-1.4,4.4c-1.1,3-2.5,5.8-4.1,8.6c-1.6,2.8-3.4,5.4-5.4,8c-0.4,0.5-0.7,0.9-1.1,1.3    c0.3-1.1,0.6-2.2,0.9-3.4c0.3-1.2,0.6-2.5,1-3.9c0.4-1.4,0.8-3,1.3-4.6c0.5-1.7,1.1-3.6,1.7-5.7c0.1-0.1,0.1-0.3,0.1-0.4    c0-0.1,0-0.3,0-0.4c0-0.3-0.3-0.8-1-1.4c-0.7-0.6-1.5-1.2-2.2-1.7c-0.8-0.6-1.6-1.1-2.4-1.5c-0.7-0.4-1.2-0.6-1.4-0.6    c-0.1,0-0.4,0.6-0.7,1.8c-0.4,1.2-0.9,2.8-1.4,4.8c-1.4,2.6-2.8,4.8-4.1,6.7c-1.3,1.9-2.4,3.4-3.5,4.7c-0.8,1-1.6,1.9-2.6,2.7    c-0.7,0.6-1.2,0.9-1.5,0.7c0-0.7,0.2-1.4,0.4-2.1c0.3-1,0.7-2,1.1-3.2s0.9-2.4,1.5-3.7s1.1-2.5,1.5-3.6c0.5-1.1,0.9-2.1,1.3-2.9    c0.4-0.8,0.6-1.3,0.7-1.5c0-0.2-0.4-0.4-1-0.8c-0.7-0.3-1.5-0.7-2.4-1.1s-1.9-0.7-2.9-1c-1-0.3-1.8-0.5-2.7-0.3    c-1.1,3-2.1,5.8-3.1,8.4c-0.9,2.4-1.6,4.6-2.3,6.5c-0.4,0.4-0.8,0.8-1.2,1.2c-0.8,0.7-1.7,1.3-2.6,1.9c-0.8,0.5-1.7,0.9-2.7,1.1    c-1,0.3-2,0.5-3.1,0.6c0.8-1.2,1.5-2.5,2.1-3.9c0.5-1.2,0.9-2.4,1-3.6c-0.3-0.6-0.7-1.2-1-1.8c-0.3-0.6-0.7-1.2-1.1-1.7    c-0.3-0.5-0.7-1-1.1-1.4c-0.4-0.5-0.9-0.8-1.5-1c-1.7,0-2.7,0.9-3.3,1.8c-0.7,0.9-1.3,1.9-1.9,3c-0.6,1.2-0.9,2.6-0.9,4    c0.1,2.6,0.7,2.4,0.7,3.5c0,0.2,0,0.3,0,0.5c0,0.2,0,0.4,0,0.6c-0.5,0.8-1.1,1.6-1.7,2.4c-0.5,0.7-1.1,1.4-1.7,2.1    c-0.5,0.5-1,1-1.6,1.5c-0.4,0.4-1,0.6-1.5,0.7c-0.2,0-0.5-0.1-0.6-0.3c-0.1-0.3-0.2-0.8-0.2-1.6c0-0.7,0.1-1.4,0.2-2.1    c0.1-0.9,0.3-1.9,0.6-3.1s0.5-2.5,0.9-3.9c0.3-1.4,0.7-2.9,1.2-4.4c2.5-2.5,4.9-5,7.3-7.5c2.4-2.5,4.7-4.9,6.9-7.4    c2.2-2.4,4.3-4.9,6.2-7.2c1.9-2.4,3.6-4.7,5.1-7c3.4-5.2,5.8-10.9,7.3-16.9c0.6-2-0.2-5.7-0.8-6.4c-0.6-0.7-1.3-1.3-2-1.8    c-0.7-0.5-1.5-0.9-2.3-1.2c-0.3-0.2-0.7-0.2-1.1-0.2c-1.6,0-3.6,1-4.9,1.6c-6.2,3.2-12.3,10.9-15.3,16.5c-2,3.8-5.5,10-8.3,15.5    c-2.1,4-4,8.8-5.4,12.5c-1.3,3.3-2.4,6.8-3.3,10.2c-0.7,2.6-1.2,5.3-1.6,8c-0.7,0.7-1.5,1.5-2.3,2.3c-0.9,0.8-1.8,1.7-2.7,2.5    s-1.8,1.7-2.7,2.4c-0.9,0.7-1.6,1.3-2.3,1.8s-1.2,0.7-1.8,0.6c0-0.6,0.1-1.2,0.3-1.8c0.2-0.8,0.4-1.7,0.7-2.8    c0.3-1.1,0.6-2.2,1-3.5s0.8-2.5,1.2-3.7c0.4-1.2,0.8-2.4,1.2-3.5c0.4-1.1,0.5-0.8,0.8-1.6c0.1-0.2,0.1-0.4,0.1-0.6    c0-0.2,0-0.3,0-0.5c-0.1-0.2-0.4-0.5-1-0.9c-0.7-0.5-1.4-0.9-2.1-1.2c-0.8-0.4-1.5-0.8-2.2-1.1c-0.4-0.2-0.9-0.3-1.4-0.4    c-0.3,0-0.5,0.2-0.6,0.5c-0.3,0.9-0.5,1.8-0.8,2.7c-1.7,3.7-3.2,5.4-4.8,8c-1.4,2.3-2.7,4.3-3.9,5.8c-0.9,1.2-1.9,2.4-2.9,3.4    c-0.8,0.8-1.3,1.2-1.7,1c0.1-0.7,0.2-1.4,0.4-2.1c0.3-1,0.7-2.1,1.1-3.3c0.4-1.2,1-2.5,1.5-3.9s1-2.6,1.5-3.8    c0.5-1.2,3.4-8.9,3.8-9.7c0.4-0.8,0.6-1.3,0.7-1.6c0-0.2-0.3-0.4-1-0.7c-0.7-0.3-1.5-0.6-2.4-0.9c-0.9-0.3-1.9-0.6-2.9-0.8    c-1-0.2-1.8-0.3-2.7-0.1c-1.1,3-4.6,12.7-5.6,15.4c-1,2.7-1.8,5.2-2.5,7.4c-0.7,2.2-1.3,4.1-1.7,5.7c-0.4,1.6-0.6,2.7-0.6,3.3    c0,0.6,0.2,1.2,0.6,1.7c0.4,0.6,0.9,1.1,1.5,1.5c0.6,0.4,1.2,0.7,1.9,1c0.5,0.2,0.9,0.3,1.4,0.3c0.1,0,0.3,0,0.4,0    c0.3-0.1,0.6-0.1,0.9-0.2c0.3-0.1,0.6-0.3,0.8-0.5c0.4-0.3,1-0.9,1.8-1.6s1.7-1.7,2.8-2.8c1.1-1.1,2.2-2.5,3.5-4.1    c1.3-1.6,2.5-3.4,3.9-5.4c-0.5,1.9-0.9,3.5-1.3,4.9s-0.5,2.3-0.5,2.8c0,0.6,0.2,1.1,0.6,1.6c0.4,0.5,0.9,1,1.4,1.4    c0.5,0.4,1.1,0.7,1.8,0.9c0.4,0.2,0.8,0.2,1.3,0.2c0.1,0,0.3,0,0.4,0c0.7-0.1,1.5-0.5,2.6-1.1c1.1-0.7,2.3-1.5,3.3-2.3    c1.2-0.9,2.4-2,3.6-3.1c1.3-1.1,2.5-2.3,3.6-3.5c0.6-0.6,1.1-1.1,1.6-1.7c0,0.4,0,0.9,0,1.2c0,0.6,0.3,1.3,0.8,2.2    c0.6,0.9,1.3,1.8,2.1,2.5c0.8,0.8,1.7,1.4,2.7,2c0.7,0.4,1.5,0.6,2.3,0.6c0.2,0,0.4,0,0.5,0c1.1-0.2,2.1-0.5,3.1-1    c1.2-0.6,2.3-1.2,3.3-2c1.2-0.8,2.3-1.8,3.3-2.8c1.1-1,2.1-2.1,3.7-3.3l0.6-0.1c1.3-0.1,2.6-0.4,3.8-0.7c1.3-0.4,2.5-0.8,3.7-1.5    c0.7-0.4,1.4-0.8,2.1-1.2c-0.1,0.3-0.2,0.5-0.2,0.8c-0.4,1.5-0.6,2.6-0.6,3.2c0,0.6,0.2,1.2,0.6,1.7c0.4,0.6,0.9,1.1,1.5,1.6    c0.6,0.5,1.2,0.8,1.9,1.1c0.6,0.2,1.2,0.4,1.9,0.3c0.3,0,0.6-0.1,0.9-0.2c0.3-0.1,0.6-0.2,0.8-0.4c0.4-0.3,0.9-0.7,1.7-1.3    c0.7-0.6,1.6-1.3,2.6-2.3c1-0.9,2.1-2,3.3-3.3c1.3-1.4,2.5-2.9,3.7-4.5c-0.8,2.5-1.5,5-2.3,7.5c-0.8,2.5-1.6,5-2.5,7.3    c-2.7,2.2-5.3,4.3-7.7,6.3c-2.2,1.9-4.2,3.9-6.2,6.1c-1.6,1.8-3,3.7-4.1,5.8c-1,1.7-1.5,3.7-1.5,5.7c0,0.6,0.3,1.2,0.7,1.7    c0.5,0.6,1,1.1,1.6,1.6c0.6,0.5,1.3,0.9,2,1.2c0.5,0.2,1.1,0.4,1.7,0.4c1.1-0.2,2.2-0.5,3.2-1.1c1.3-0.8,2.5-1.6,3.6-2.6    c1.4-1.2,2.6-2.5,3.8-3.8c1.3-1.5,2.6-3.1,3.8-4.8c1.2-1.8,2.4-3.6,3.5-5.5c1.1-1.9,2-3.9,2.9-5.9c0.7-1.8,1.4-3.4,1.9-4.9    c0.3-0.8,0.5-1.5,0.8-2.2c1.2-1,2.1-1.8,2.5-2.1c0.6-0.6,1.3-1.2,1.9-1.8c0.4-0.4,0.8-0.8,1.2-1.2c0.1-0.1,0.2-0.2,0.2-0.3    l0.4-0.4c2.3-2.5,4.4-5.2,6.3-8.1c0.9-1.4,1.8-2.9,2.6-4.4c0.8-1.5,1.6-3.1,2.2-4.7c1.3-3.2,2.3-6.7,2.6-10.4    C177.6,68.8,177.6,67.9,177.5,66.9z M120,69.8c0.7-1.8,1.7-5.2,2.3-6.7c2.1-5.3,4.2-10,5.6-13.2c1.7-3.9,4.2-8.6,5.7-10.4    c3.6-4.6,5.7-5.4,6.6-5.4c0.2,0,0.5,0,0.7,0.2c1.4,0.8,2.8,3.5,0.6,8.9c-1.8,4.5-5.4,9.7-7.4,12.5c-2,2.9-4.4,6-7.1,9.4    c-2.8,3.4-5.7,6.8-9,10.4C118.6,73.5,119.3,71.6,120,69.8z M142.3,117.5c-1.1,2.1-2.2,3.9-3.3,5.6c-0.9,1.5-1.9,2.9-3,4.2    c-0.9,1.1-1.7,1.7-2.2,1.7h-0.1c-0.3,0-0.4-0.2-0.4-0.6c0-1.7,0.4-3.4,1.2-5c0.8-1.6,1.9-3.1,3-4.5c1.2-1.4,2.5-2.8,3.9-4    c1.4-1.2,2.6-2.4,3.8-3.4C144.4,113.5,143.4,115.5,142.3,117.5z"/>
		<path class="st0" d="M7.3,70.1c0.5,0.3,1,0.7,1.6,1c0.6,0.4,1.3,0.8,1.9,1.3c0.5,0.4,1.3,0.3,1.6-0.3c0,0,0.1-0.1,0.1-0.1    c2.7-5.3,9.1-18.3,10.9-22.1c1.5-3.2,8.4-18.6,8.7-19.5c1.2-3,2.5-6,3.7-9.1c1.9-4.7,3.7-9.7,5.7-14.9c0.2-0.4,0-0.9-0.3-1.3    c-0.3-0.3-0.6-0.6-1-0.9c-0.6-0.5-1.3-1.1-2-1.6S36.7,1.6,36,1c-0.3-0.2-0.5-0.4-0.8-0.6C34.7,0,34,0,33.6,0.5    c-0.1,0.1-0.2,0.3-0.2,0.5c-0.9,3.3-1.9,6.6-2.9,9.9c-1.2,3.9-2.5,7.7-3.8,11.4s-2.6,7.4-3.9,10.9c-1.3,3.5-2.6,6.8-3.9,10    c-1.3,3.1-2.5,6-3.7,8.7C14,54.2,8.7,65,6.9,68.6C6.6,69.2,6.8,69.8,7.3,70.1z"/>
		<path class="st0" d="M35.7,30.3c-0.5,0.5-1.1,1.1-1.6,1.6c-0.2,0.2-5.3,4.6-3.9,8.5c2.1,5.9,4.6,12.7,6.3,16.6    c0.7,1.6,2,2.2,3.5,2.2c1.7,0,3.5-0.7,4.7-1.2c0.6-0.3,0.9-0.9,0.6-1.5c0-0.1-0.1-0.2-0.1-0.2c-2.6-3.6-7.8-12.7-10.7-17.6    c-0.3-0.5-0.2-1.2,0.3-1.6c3.8-2.7,7.2-5.3,10.2-7.8c3.3-2.7,6.2-5.4,8.9-8s5.2-5.3,7.5-7.9c2-2.3,4.1-4.7,6.1-7.1    c0.4-0.5,0.4-1.2-0.1-1.7c0,0-0.1-0.1-0.1-0.1c-0.2-0.2-0.5-0.4-0.8-0.6l-2.1-1.5c-0.7-0.5-1.5-1-2.2-1.5    c-0.3-0.2-0.6-0.4-0.9-0.6C61.2,0.1,61,0,60.7,0c-0.4,0-0.8,0.2-1,0.6c-0.8,1.6-1.8,3.2-2.9,4.8c-1.3,2.1-2.8,4.1-4.5,6.3    c-1.6,2.1-3.4,4.3-5.2,6.4c-1.8,2.1-3.7,4.2-5.6,6.3C39.6,26.4,37.7,28.4,35.7,30.3z"/>
		<path class="st0" d="M99.8,130.1c-0.2-0.6-0.8-1-1.4-1c-0.1,0-0.3,0-0.4,0.1c-4.3,1.5-11.8,3.9-20.5,3.9c-5.4,0-10.8-1-15.8-2.9    c-11.2-4.4-17.5-16.2-18.3-18.9c4.4-2.8,8.4-6,12-9.8c3.1-3.2,5.8-6.7,8-10.5c1.9-3.3,3.4-6.8,4.3-10.4c0.8-3.1,1.1-6.4,0.9-9.6    c-0.1-0.7-0.3-1.4-0.7-2c-0.4-0.7-0.9-1.4-1.5-2.1c-1.2-1.4-2.7-2.6-4.4-3.6c-0.8-0.4-1.6-0.7-2.4-1c-0.4-0.1-0.9-0.2-1.4-0.2    c-0.3,0-0.5,0-0.8,0.1c-2.9,0.7-5.7,1.8-8.3,3.3c-3,1.8-5.8,3.9-8.5,6.2c0.1-0.6,0.2-1.2,0.2-1.7c0.1-0.5,0.1-1.1,0.1-1.6    c-0.5-0.6-1.1-1.2-1.7-1.8c-0.8-0.7-1.6-1.4-2.4-1.9c-1-0.7-2-1.2-3-1.7c-1.1-0.5-2.3-0.9-3.5-1.2c0,3.1-0.3,6.8-0.9,11.2    c-0.7,4.3-1.6,9-2.8,13.9c-2.2,2.8-4.3,5.7-6.3,8.7c-2,3-4,6-5.8,9c-1.8,3-3.5,6-5.1,9c-1.6,3-3,5.8-4.2,8.6    c-1.2,2.8-2.3,5.4-3.2,7.9c-0.8,2.2-1.5,4.5-2,6.8C0,137.4,0,138,0,138.6c0,0.5,0.2,1.1,0.5,1.5l0.6,0.8c0.3,0.4,0.7,0.9,1.2,1.4    c0.5,0.5,1,1,1.5,1.6c0.5,0.5,1.1,1,1.6,1.5c0.5,0.4,1,0.7,1.6,1c0.4,0.2,0.8,0.3,1.3,0.3c0.8-0.2,1.6-0.4,2.3-0.8    c0.5-0.3,1.1-0.6,1.6-0.9c1.7-1.2,3.4-3,5.1-5.5c1.9-2.7,3.6-5.6,5.1-8.6c1.7-3.3,3.3-6.8,4.8-10.7c1.6-3.9,3-7.8,4.4-11.9    c1.4-4.1,2.6-8.1,3.8-12.2c1.1-4.1,2.1-7.9,3-11.5c1.9-2.2,3.8-4.2,5.7-6.2c1.9-2,3.7-3.7,5.5-5.3c1.6-1.4,3.3-2.8,5.1-4.1    c1.4-1,2.9-1.9,4.5-2.6c0.7-0.3,1.4-0.4,2.1-0.5c0.4,0,0.7,0.1,1,0.3c0.3,0.2,0.5,0.6,0.6,0.9c0.1,0.5,0.2,1,0.2,1.4    c0.1,1.6,0,3.3-0.3,4.9c-0.4,2-1,3.9-1.8,5.8c-1,2.2-2.1,4.4-3.4,6.4c-1.6,2.4-3.3,4.7-5.3,6.7c-2.3,2.4-4.8,4.7-7.4,6.7    c-3.1,2.4-6.3,4.5-9.8,6.3c0.6,2.7,1.4,5.5,2.1,8.2c0.8,2.7,1.5,5.4,2.4,7.9c3.3,9,9.8,14.4,20.5,18.6c2.7,1,5.8,1.4,9.1,1.4    c12.7,0,28.2-6.3,30.3-7.5c0.9-0.5,1.3-1.6,0.9-2.6L99.8,130.1z M17.3,118.6c-1.3,3.7-2.6,6.9-3.9,9.7c-1,2.3-2.1,4.6-3.4,6.7    c-1,1.7-1.9,2.5-2.6,2.6H7.3c-0.2,0-0.4-0.2-0.4-0.5c-0.1-1.4,0.2-3.2,0.9-5.4c0.8-2.5,1.8-4.9,2.9-7.2c1.3-2.6,2.8-5.5,4.6-8.5    s3.8-6.1,5.9-9.2C20,111,18.7,114.9,17.3,118.6z"/>
		<polygon class="st1" points="95.8,75.4 94.4,68.6 98.3,66.6   "/>
		<polygon class="st2" points="89.2,68.6 95.8,75.4 83.2,68.2   "/>
		<polygon class="st3" points="89.2,68.6 88.6,62.3 92.8,62 94.4,68.6   "/>
		<polygon class="st1" points="98.3,66.6 96.6,61 99.3,58.3 103.8,63.7   "/>
		<polyline class="st3" points="99.3,58.3 84.4,61.8 88.6,62.3 92.8,62 96.6,61 99.3,58.3   "/>
		<g class="st4">

				<linearGradient id="SVGID_1_" gradientUnits="userSpaceOnUse" x1="14.7594" y1="44.312" x2="31.9426" y2="55.2862" gradientTransform="matrix(1 0 0 -1 0 148.5856)">
				<stop offset="0" style="stop-color:#D60B51"/>
				<stop offset="1" style="stop-color:#000000"/>
			</linearGradient>
			<path class="st5" d="M26.8,86.9l-5.5,20l-3.4,5.2l-5.6-3.5c0,0,4.7-7.9,6.2-10c1.4-2.2,5.4-7.8,5.4-7.8L26.8,86.9z"/>

				<linearGradient id="SVGID_2_" gradientUnits="userSpaceOnUse" x1="44.5588" y1="73.3752" x2="32.4295" y2="67.7899" gradientTransform="matrix(1 0 0 -1 0 148.5856)">
				<stop offset="0" style="stop-color:#D60B51"/>
				<stop offset="1" style="stop-color:#000000"/>
			</linearGradient>
			<path class="st6" d="M40.8,71.7l-2.4,12.8c0,0,6-6.6,7.5-8l-1.6-7.7L40.8,71.7z"/>

				<linearGradient id="SVGID_3_" gradientUnits="userSpaceOnUse" x1="43.9066" y1="44.0108" x2="44.2907" y2="35.347" gradientTransform="matrix(1 0 0 -1 0 148.5856)">
				<stop offset="0" style="stop-color:#D60B51"/>
				<stop offset="1" style="stop-color:#000000"/>
			</linearGradient>
			<path class="st7" d="M43.4,111.2l-8.4-5.8l18-1.4C52.9,104,45.8,109.9,43.4,111.2z"/>

				<linearGradient id="SVGID_4_" gradientUnits="userSpaceOnUse" x1="62.2014" y1="99.4067" x2="55.614" y2="93.6395" gradientTransform="matrix(1 0 0 -1 0 148.5856)">
				<stop offset="0" style="stop-color:#D60B51"/>
				<stop offset="1" style="stop-color:#000000"/>
			</linearGradient>
			<path class="st8" d="M56.8,51.7c0,0-0.8,4.6,3.4,1.4c1.3-1,3.6-3.2,5.1-5l-2.1-1.3l-3.5,3.3C59.6,50.1,56.8,52.6,56.8,51.7z"/>

				<linearGradient id="SVGID_5_" gradientUnits="userSpaceOnUse" x1="63.6467" y1="100.4999" x2="66.8176" y2="103.9163" gradientTransform="matrix(1 0 0 -1 0 148.5856)">
				<stop offset="0" style="stop-color:#D60B51"/>
				<stop offset="1" style="stop-color:#000000"/>
			</linearGradient>
			<path class="st9" d="M65.9,44c0,0-0.6,3.5-0.6,4.1l-0.7,0.8l-1.9-1.6L65.9,44z"/>

				<linearGradient id="SVGID_6_" gradientUnits="userSpaceOnUse" x1="75.7929" y1="99.3044" x2="79.2353" y2="101.8833" gradientTransform="matrix(1 0 0 -1 0 148.5856)">
				<stop offset="0" style="stop-color:#D60B51"/>
				<stop offset="1" style="stop-color:#000000"/>
			</linearGradient>
			<path class="st10" d="M78.3,45.1c0,0-0.4,2.9,0,4.1l-1.4,1.5l-2.2-1.3C76,48.1,77.2,46.7,78.3,45.1z"/>

				<linearGradient id="SVGID_7_" gradientUnits="userSpaceOnUse" x1="89.8826" y1="101.7572" x2="93.2181" y2="105.3383" gradientTransform="matrix(1 0 0 -1 0 148.5856)">
				<stop offset="0" style="stop-color:#D60B51"/>
				<stop offset="1" style="stop-color:#000000"/>
			</linearGradient>
			<path class="st11" d="M91.6,42.8l0.1,0.2c0.2,0.5,0.9,1.9,1.6,2.3c0,0-1.4,1.7-2.4,2.7l-2.1-1.6"/>

				<linearGradient id="SVGID_8_" gradientUnits="userSpaceOnUse" x1="94.4794" y1="112.3613" x2="96.4028" y2="112.1071" gradientTransform="matrix(1 0 0 -1 0 148.5856)">
				<stop offset="0.11" style="stop-color:#D60B51"/>
				<stop offset="0.95" style="stop-color:#2D292A;stop-opacity:0.95"/>
				<stop offset="1" style="stop-color:#000000"/>
			</linearGradient>
			<path class="st12" d="M94.2,39.6c0,0,2.6-5.4,1.6-6.5C95.8,33,94.1,34.6,94.2,39.6z"/>

				<linearGradient id="SVGID_9_" gradientUnits="userSpaceOnUse" x1="100.0159" y1="106.866" x2="106.3173" y2="108.8413" gradientTransform="matrix(1 0 0 -1 0 148.5856)">
				<stop offset="0" style="stop-color:#D60B51"/>
				<stop offset="1" style="stop-color:#000000"/>
			</linearGradient>
			<path class="st13" d="M105,37.4l-1.3,4.6c0,0-1.9,1.7-2.9,2.3L100,42C100,42,100.9,41.7,105,37.4z"/>

				<linearGradient id="SVGID_10_" gradientUnits="userSpaceOnUse" x1="110.6826" y1="104.2689" x2="118.6735" y2="110.322" gradientTransform="matrix(1 0 0 -1 0 148.5856)">
				<stop offset="0" style="stop-color:#D60B51"/>
				<stop offset="1" style="stop-color:#000000"/>
			</linearGradient>
			<path class="st14" d="M110.1,43.8c-0.3,1.2,0.1,2.2,0.8,1.9c0.7-0.3,6-5.5,9.4-10.3l-7.4,7.1c0,0-2,1.7-2.6,1.7     C110,44.2,110.1,43.8,110.1,43.8z"/>

				<linearGradient id="SVGID_11_" gradientUnits="userSpaceOnUse" x1="123.5824" y1="72.9383" x2="110.4076" y2="68.875" gradientTransform="matrix(1 0 0 -1 0 148.5856)">
				<stop offset="0" style="stop-color:#D60B51"/>
				<stop offset="1" style="stop-color:#000000"/>
			</linearGradient>
			<path class="st15" d="M117.9,75.4c0,0-2,5.8-2.8,9l10.8-11.1l-3-3.5C122.9,69.8,118.5,74.8,117.9,75.4z"/>

				<linearGradient id="SVGID_12_" gradientUnits="userSpaceOnUse" x1="97.9334" y1="50.3184" x2="104.7201" y2="51.9529" gradientTransform="matrix(1 0 0 -1 0 148.5856)">
				<stop offset="0" style="stop-color:#D60B51"/>
				<stop offset="1" style="stop-color:#000000"/>
			</linearGradient>
			<polygon class="st16" points="102.8,93.2 102.3,97.9 97.9,102.2 97.3,98.5    "/>

				<linearGradient id="SVGID_13_" gradientUnits="userSpaceOnUse" x1="80.5192" y1="54.8229" x2="87.7939" y2="53.9045" gradientTransform="matrix(1 0 0 -1 0 148.5856)">
				<stop offset="0" style="stop-color:#D60B51"/>
				<stop offset="1" style="stop-color:#000000"/>
			</linearGradient>
			<path class="st17" d="M83.9,97.7l4.4-13.4c-0.6,1.3-1.3,2.5-2,3.7c-1.8,2.8-4,6.5-5.8,8.9l-1.2,7.1c0,0,1.7-2.1,2.5-3.2     C82.6,99.7,83.9,97.7,83.9,97.7z"/>

				<linearGradient id="SVGID_14_" gradientUnits="userSpaceOnUse" x1="139.0052" y1="117.2138" x2="145.5955" y2="107.9088" gradientTransform="matrix(1 0 0 -1 0 148.5856)">
				<stop offset="0" style="stop-color:#D60B51"/>
				<stop offset="1" style="stop-color:#000000"/>
			</linearGradient>
			<path class="st18" d="M141.4,43.1c-1.2,2.4,8.6-13.5,0.2-14.4l-4.2,6.6c0,0,2-1.8,3.4-1.2C142.9,35.1,143.2,39.4,141.4,43.1z"/>

				<linearGradient id="SVGID_15_" gradientUnits="userSpaceOnUse" x1="119.4342" y1="61.5014" x2="125.4989" y2="61.0682" gradientTransform="matrix(1 0 0 -1 0 148.5856)">
				<stop offset="0" style="stop-color:#D60B51"/>
				<stop offset="1" style="stop-color:#000000"/>
			</linearGradient>
			<path class="st19" d="M119.6,93.3c0,0,3.9-6,4.4-7.4s1.2-5.3-1.8-4.8c-1.1,1.3-2.1,2.8-2.7,4.3c-0.8,2-0.8,4.2,0,6.2     c0.1,0.4,0.1,0.7,0.1,1.1C119.6,93.1,119.6,93.3,119.6,93.3z"/>

				<linearGradient id="SVGID_16_" gradientUnits="userSpaceOnUse" x1="130.5755" y1="55.9081" x2="136.2791" y2="56.8467" gradientTransform="matrix(1 0 0 -1 0 148.5856)">
				<stop offset="0" style="stop-color:#D60B51"/>
				<stop offset="1" style="stop-color:#000000"/>
			</linearGradient>
			<path class="st20" d="M136.1,88.6l-1.7,5.2c-1.1,0.8-2.3,1.5-3.6,1.9v-3.4C130.8,92.3,133.2,91.6,136.1,88.6z"/>

				<linearGradient id="SVGID_17_" gradientUnits="userSpaceOnUse" x1="127.4453" y1="53.5054" x2="119.6248" y2="52.8528" gradientTransform="matrix(1 0 0 -1 0 148.5856)">
				<stop offset="0" style="stop-color:#D60B51"/>
				<stop offset="1" style="stop-color:#000000"/>
			</linearGradient>
			<path class="st21" d="M126.6,93.3l-2.4,4c0,0,1.7-0.2,2.2-0.3c0.5-0.1,1.8-0.4,2-0.4l0.3-3.6l-1.3,0.2L126.6,93.3z"/>

				<linearGradient id="SVGID_18_" gradientUnits="userSpaceOnUse" x1="147.6702" y1="55.3827" x2="144.4934" y2="52.4225" gradientTransform="matrix(1 0 0 -1 0 148.5856)">
				<stop offset="0" style="stop-color:#D60B51"/>
				<stop offset="1" style="stop-color:#000000"/>
			</linearGradient>
			<path class="st22" d="M144,93.9c-0.3,1.6,3.2,3,5.1,0.6l-2.6-2.2c0,0-1.3,1.2-1.7,1.4C144.4,94,144,93.9,144,93.9z"/>

				<linearGradient id="SVGID_19_" gradientUnits="userSpaceOnUse" x1="150.4624" y1="63.2312" x2="156.4779" y2="64.1929" gradientTransform="matrix(1 0 0 -1 0 148.5856)">
				<stop offset="0" style="stop-color:#D60B51"/>
				<stop offset="1" style="stop-color:#000000"/>
			</linearGradient>
			<path class="st23" d="M152.4,90.5l3.3-11.5c0,0-1.1,1.9-2.3,4c-1.1,1.8-2.3,3.5-3.5,5.2L152.4,90.5z"/>

				<linearGradient id="SVGID_20_" gradientUnits="userSpaceOnUse" x1="139.9789" y1="38.3998" x2="149.0037" y2="38.9052" gradientTransform="matrix(1 0 0 -1 0 148.5856)">
				<stop offset="0" style="stop-color:#D60B51"/>
				<stop offset="1" style="stop-color:#000000"/>
			</linearGradient>
			<path class="st24" d="M147.6,105.4l-2.3,6l-3.5,3.1l-2.6-2.2C139.3,112.2,144.6,107.6,147.6,105.4z"/>

				<linearGradient id="SVGID_21_" gradientUnits="userSpaceOnUse" x1="130.7459" y1="23.7576" x2="133.296" y2="17.4994" gradientTransform="matrix(1 0 0 -1 0 148.5856)">
				<stop offset="0" style="stop-color:#D60B51"/>
				<stop offset="1" style="stop-color:#000000"/>
			</linearGradient>
			<path class="st25" d="M134.1,129.1c-1.4,0.4-5.7,0.8-5.7-1.7c0.2-1.3,0.7-2.6,1.3-3.8l4.5,0.8c-0.5,1.2-0.7,2.5-0.8,3.8     C133.3,129.5,134.1,129.1,134.1,129.1z"/>

				<linearGradient id="SVGID_22_" gradientUnits="userSpaceOnUse" x1="3.2711" y1="17.2881" x2="6.9561" y2="7.1139" gradientTransform="matrix(1 0 0 -1 0 148.5856)">
				<stop offset="0" style="stop-color:#D60B51"/>
				<stop offset="1" style="stop-color:#000000"/>
			</linearGradient>
			<path class="st26" d="M8.2,137.3L8.2,137.3c-1.2,0.9-6.2,2.8-8-1.1c0,0,0.9-3.3,1.6-5.4l6.2,0.3c-0.6,1.6-0.9,3.2-1.1,4.8     C6.7,138.6,8.2,137.3,8.2,137.3z"/>

				<linearGradient id="SVGID_23_" gradientUnits="userSpaceOnUse" x1="95.3693" y1="46.5257" x2="91.4186" y2="43.7158" gradientTransform="matrix(1 0 0 -1 0 148.5856)">
				<stop offset="0" style="stop-color:#D60B51"/>
				<stop offset="1" style="stop-color:#000000"/>
			</linearGradient>
			<path class="st27" d="M91,102.7c0,1,2.5,3,4,1.9l1.1-1l-2.2-2.4c0,0-1.2,0.9-1.3,1C92.3,102.5,91.7,103,91,102.7"/>

				<linearGradient id="SVGID_24_" gradientUnits="userSpaceOnUse" x1="164.9038" y1="51.537" x2="154.8683" y2="49.01" gradientTransform="matrix(1 0 0 -1 0 148.5856)">
				<stop offset="0" style="stop-color:#D60B51"/>
				<stop offset="1" style="stop-color:#000000"/>
			</linearGradient>
			<path class="st28" d="M159.7,96.2l-2.1,7c2.6-2.1,5-4.5,7.2-7l-3-2.6L159.7,96.2z"/>

				<linearGradient id="SVGID_25_" gradientUnits="userSpaceOnUse" x1="38.5041" y1="117.8011" x2="32.1622" y2="110.1018" gradientTransform="matrix(1 0 0 -1 0 148.5856)">
				<stop offset="0" style="stop-color:#D60B51"/>
				<stop offset="1" style="stop-color:#000000"/>
			</linearGradient>
			<path class="st29" d="M35.7,30.3c-0.5,0.5-1.1,1.1-1.6,1.6l-0.3,0.3c-0.9,1.1-1.4,2.6,0.7,6.3c0,0,0,0,0-0.1     c-0.2-0.5,0-1.1,0.4-1.4c2-1.4,3.8-2.8,5.6-4.2l-3.3-4C36.7,29.3,36.2,29.8,35.7,30.3z"/>
		</g>
	</g>
</g>
</svg>
