<?xml version="1.0" encoding="UTF-8"?>
<svg width="370px" height="107px" viewBox="0 0 370 107" version="1.1" xmlns="http://www.w3.org/2000/svg" xmlns:xlink="http://www.w3.org/1999/xlink">
    <!-- Generator: Sketch 58 (84663) - https://sketch.com -->
    <title>trineo-logo</title>
    <desc>Created with Sketch.</desc>
    <g id="Page-1" stroke="none" stroke-width="1" fill="none" fill-rule="evenodd">
        <g id="trineo-logo" fill-rule="nonzero">
            <path d="M53.0828427,0.00122439746 C31.4445698,0.170286496 12.0388946,13.3576727 3.91503473,33.413866 C-4.20882508,53.4700592 0.549069368,76.445129 15.9700257,91.6253842 C31.3909821,106.805639 54.4379481,111.201432 74.3637062,102.762925 C94.2894643,94.3244174 107.169772,74.7135163 106.998309,53.0751399 C106.731181,23.5454418 82.6129209,-0.196363455 53.0828427,0.00122439746 Z M29.1455968,47.1220173 C32.3834852,54.222284 42.0000135,62.997011 53.1984816,67.8955012 C44.238782,76.374191 27.1889872,56.9560023 29.1455968,47.1220173 Z M61.4227179,85.1674203 C53.6101559,85.7964993 44.3544209,80.7314882 39.9323905,74.5285842 C38.2248254,72.0892454 36.914941,69.3945216 36.0515501,66.5448315 C41.0101448,74.1215331 56.5797621,80.1440395 65.6874794,78.7193605 C67.0242647,83.2709322 64.6744829,84.9037622 61.431969,85.1627948 L61.4227179,85.1674203 Z M79.4207515,66.2395432 C76.7148019,59.3844323 71.2242684,54.6755909 64.850254,51.3729261 C54.3086147,45.9286174 42.2821723,42.3576689 35.2975847,30.1970167 C35.8202724,31.4783026 30.7414132,46.1830243 51.6304185,55.0872676 C47.1945115,58.3575533 38.6788652,53.4220585 35.4409769,50.3321704 C31.5105938,46.6229252 29.2566173,41.4754816 29.1964779,36.0715044 C29.1502224,31.3025305 29.7422934,25.4326683 32.0781986,22.268771 C35.7046335,17.3656552 38.0451642,20.3907851 40.3764438,23.5778104 C48.9152179,36.3906695 59.3412183,39.1243878 71.4139162,47.0295056 C78.5696494,51.705968 80.692779,59.310423 79.4300026,66.2349176 L79.4207515,66.2395432 Z" id="Shape" fill="#BA2025"></path>
            <path d="M130.845463,40.3751898 L132.387581,30.6876435 L146.128543,30.5812378 L144.287208,40.2734104 L154.322483,40.1947627 L152.591628,50.2894264 L142.560956,50.3680741 L140.065947,65.2093579 C139.205123,70.3584692 140.033724,74.7951248 143.859097,74.7627404 C145.659002,74.7627404 147.661454,74.0225268 151.657151,71.9869392 L151.749217,83.9830268 C147.35303,86.1435254 144.149108,86.9716395 140.130394,86.9993975 C128.902854,87.0872978 124.405394,77.543168 126.140852,67.9527748 L129.206675,50.4837325 L120,50.5577539 L121.624978,40.4630901 L130.845463,40.3751898 Z M175.124964,46.5791055 L176.077855,40.0189619 L162.52563,40.1253676 L156.463035,85.9492193 L170.010656,85.8428136 L173.605863,58.5936984 C175.088138,55.5541961 178.572864,51.8947648 181.78139,51.8670068 C183.986389,51.8670068 185.924394,53.3520604 188.226062,56.7616696 L194.449774,44.1086424 C191.310298,40.5093535 189.00863,39.1214529 186.301867,39.1214529 C182.987464,39.1492109 179.488928,41.4993892 175.322908,46.7780379 L175.124964,46.5791055 Z M207.716592,85.5467282 L213.774584,39.7182501 L200.236169,39.8246558 L194.164367,85.6531339 L207.716592,85.5467282 Z M208.411696,20.0008088 C205.570165,20.0214823 203.020902,21.7605936 201.952894,24.4070136 C200.884885,27.0534335 201.508518,30.0858478 203.532926,32.0899249 C205.557335,34.094002 208.583734,34.6749619 211.200597,33.5618422 C213.817461,32.4487225 215.509297,29.8607949 215.487026,27.0050806 C215.486008,25.1284238 214.736185,23.3305626 213.405443,22.0140414 C212.0747,20.6975203 210.274206,19.9723181 208.407093,20.0008088 L208.411696,20.0008088 Z M238.646416,39.523944 L225.098794,39.6303498 L219.050009,85.4542015 L232.588424,85.3477957 L236.469037,55.8780395 C241.049358,50.904729 244.755044,48.7534831 247.85309,48.7303514 C251.475917,48.7025934 252.507064,53.4307081 251.936251,57.8719901 L248.336441,85.227511 L261.884062,85.1211053 L265.566732,56.7570432 C266.795823,47.3748351 263.909531,38.5200293 253.381698,38.6033033 C247.857694,38.6449403 243.364836,40.3983214 237.877658,44.6776816 L238.646416,39.523944 Z M302.250727,55.9659399 L286.300164,56.090851 C288.256582,50.3218108 291.253354,47.6801733 295.663352,47.6431626 C300.266689,47.6061519 303.028691,51.0111347 302.250727,55.9705662 L302.250727,55.9659399 Z M312.378069,70.9043768 C305.01273,73.9855161 299.810959,75.6417442 295.585095,75.6695022 C289.071373,75.7203919 284.426605,71.4179 285.061866,63.9556211 L314.863872,63.719678 C317.957314,49.0727002 310.150054,38.1406698 295.907328,38.2748335 C282.17097,38.3812392 271.307094,49.6648711 271.417574,63.6734146 C271.523451,77.1869402 280.426305,85.8798243 294.26854,85.7780449 C298.982358,85.7410342 304.492553,84.4872974 310.099417,82.3267988 L312.378069,70.9043768 Z M345.701628,48.9616682 C351.225633,48.9200312 354.862269,52.9218112 354.908303,58.9684315 C354.958939,65.32039 351.119756,74.2353382 343.289479,74.2864721 C339.275369,74.3186123 334.230112,71.1310672 334.174872,64.1730588 C334.138045,59.5467235 336.86322,49.0264369 345.683215,48.9570418 L345.701628,48.9616682 Z M368.999118,59.264517 C368.897845,46.1627353 359.29068,37.7613103 346.249425,37.867716 C331.813359,37.9833744 320.051833,49.5677181 320.162313,63.4791085 C320.258983,75.8823136 330.363308,85.4819595 343.298686,85.3801801 C357.951109,85.269148 369.114202,73.8837367 368.999118,59.264517 Z" id="Shape" fill="#333333"></path>
            <g id="Group" opacity="0.1" style="mix-blend-mode: multiply;" transform="translate(120.000000, 20.000000)" fill="#000000">
                <path d="M10.9086716,20.3615753 L12.4538745,10.7521233 L26.2223247,10.6465753 L24.3773063,20.2606164 L34.4326568,20.1826027 L32.6983395,30.1958904 L22.6476015,30.2739041 L20.1476015,44.9955479 C19.2850554,50.1031507 20.1153137,54.5040411 23.9483395,54.4719178 C25.751845,54.4719178 27.7583026,53.7376712 31.7619926,51.7184932 L31.8542435,63.6178767 C27.449262,65.7609589 24.2389299,66.5823973 20.2121771,66.6099315 C8.96217712,66.6971233 4.45571956,57.2299315 6.19464945,47.7168493 L9.26660517,30.3886301 L0.0415129151,30.4620548 L1.6697417,20.4487671 L10.9086716,20.3615753 Z M55.2767528,26.5154795 L56.2315498,20.0082192 L42.652214,20.1137671 L36.5774908,65.5682192 L50.152214,65.4626712 L53.7546125,38.4332192 C55.2398524,35.4182192 58.7315498,31.7882877 61.9464945,31.7607534 C64.1559041,31.7607534 66.097786,33.2338356 68.404059,36.6159589 L74.6402214,24.0649315 C71.4944649,20.4946575 69.1881919,19.1179452 66.4760148,19.1179452 C63.1549815,19.1454795 59.6494465,21.4767123 55.4750923,26.7128082 L55.2767528,26.5154795 Z M87.9335793,65.1689726 L94.00369,19.7099315 L80.4381919,19.8154795 L74.3542435,65.2745205 L87.9335793,65.1689726 Z M88.6300738,0.151438356 C85.7828583,0.171945143 83.228495,1.897037 82.1583504,4.52212335 C81.0882058,7.14720969 81.713086,10.1551788 83.741544,12.1431005 C85.7700021,14.1310221 88.8024552,14.7072987 91.4245537,13.6031522 C94.0466521,12.4990056 95.7418728,9.93194016 95.7195572,7.09924658 C95.7185378,5.23771807 94.9672145,3.45434996 93.6338101,2.14844169 C92.3004056,0.842533419 90.4963091,0.123177247 88.6254613,0.151438356 L88.6300738,0.151438356 Z M118.925277,19.5171918 L105.350554,19.6227397 L99.2896679,65.0771918 L112.855166,64.9716438 L116.743542,35.7394521 C121.333026,30.8062329 125.046125,28.6723288 128.150369,28.6493836 C131.780443,28.6218493 132.813653,33.3118493 132.241697,37.7173288 L128.634686,64.8523288 L142.20941,64.7467808 L145.899446,36.6113699 C147.130996,27.3047945 144.23893,18.5213699 133.690037,18.6039726 C128.154982,18.645274 123.653137,20.3845205 118.154982,24.6293836 L118.925277,19.5171918 Z M182.656827,35.8266438 L166.674354,35.9505479 C168.634686,30.2280137 171.637454,27.6076712 176.056273,27.5709589 C180.668819,27.5342466 183.436347,30.9117808 182.656827,35.8312329 L182.656827,35.8266438 Z M192.804428,50.6446575 C185.424354,53.7009589 180.212177,55.3438356 175.97786,55.3713699 C169.451107,55.4218493 164.797048,51.1540411 165.433579,43.7519178 L195.295203,43.5178767 C198.394834,28.9889726 190.571956,18.1450685 176.300738,18.2781507 C162.5369,18.3836986 151.651292,29.5763699 151.761993,43.4719863 C151.868081,56.8765753 160.788745,65.4993836 174.658672,65.3984247 C179.381919,65.3617123 184.903137,64.1180822 190.521218,61.975 L192.804428,50.6446575 Z M226.194649,28.8788356 C231.729705,28.8375342 235.373616,32.8070548 235.419742,38.8049315 C235.47048,45.1056849 231.623616,53.9487671 223.777675,53.9994888 C219.755535,54.0313699 214.700185,50.8695205 214.644834,43.9676027 C214.607934,39.3785616 217.338561,28.9430822 226.176199,28.8742466 L226.194649,28.8788356 Z M249.538745,39.0986301 C249.437269,26.1024658 239.810886,17.7687671 226.743542,17.8743151 C212.278598,17.9890411 200.493542,29.48 200.604244,43.2792466 C200.701107,55.5824658 210.825646,65.104726 223.7869,65.0037671 C238.468635,64.8936301 249.654059,53.6 249.538745,39.0986301 Z" id="Shape"></path>
            </g>
        </g>
    </g>
</svg>